<svg width="48" height="49" viewBox="0 0 48 49" fill="none" xmlns="http://www.w3.org/2000/svg">
<g id="Person add" clip-path="url(#clip0_5110_467)">
<path id="Vector" d="M24.9091 22.5C28.5255 22.5 31.4545 19.2556 31.4545 15.25C31.4545 11.2444 28.5255 8 24.9091 8C21.2927 8 18.3636 11.2444 18.3636 15.25C18.3636 19.2556 21.2927 22.5 24.9091 22.5ZM10.1818 18.875V13.4375H6.90909V18.875H2V22.5H6.90909V27.9375H10.1818V22.5H15.0909V18.875H10.1818ZM24.9091 26.125C20.54 26.125 11.8182 28.5537 11.8182 33.375V37H38V33.375C38 28.5537 29.2782 26.125 24.9091 26.125Z" fill="white"/>
</g>
<defs>
<clipPath id="clip0_5110_467">
<rect width="48" height="48" fill="white" transform="translate(0 0.5)"/>
</clipPath>
</defs>
</svg>
