<svg width="21" height="33" viewBox="0 0 21 33" fill="none" xmlns="http://www.w3.org/2000/svg">
<path fill-rule="evenodd" clip-rule="evenodd" d="M7.21505 19.9067C7.95661 19.1601 8.36409 18.2055 8.43866 17.2296C8.43869 17.2293 8.43908 17.2291 8.43931 17.2294C8.43955 17.2296 8.43993 17.2294 8.43996 17.2291C8.60074 15.0855 9.43226 13.0761 10.9605 11.5376C12.4898 9.99784 14.4845 9.1607 16.6138 9.00001C16.6141 8.99999 16.6143 8.99959 16.6141 8.99935C16.6138 8.99912 16.614 8.99872 16.6143 8.99869C18.7943 8.82824 20.5113 6.99478 20.5113 4.75711C20.5124 2.405 18.6202 0.5 16.285 0.5C14.0613 0.5 12.2402 2.22857 12.072 4.42331C12.072 4.42364 12.0716 4.42379 12.0713 4.42355C12.0711 4.42332 12.0707 4.42347 12.0707 4.4238C11.9099 6.5675 11.0784 8.57682 9.55019 10.1154C8.0208 11.6551 6.02616 12.4922 3.89687 12.6529C3.89654 12.6529 3.89639 12.6533 3.89662 12.6536C3.89685 12.6538 3.8967 12.6542 3.89637 12.6542C2.92694 12.7305 1.97881 13.1407 1.23845 13.8861C-0.412795 15.5486 -0.412795 18.2431 1.23845 19.9056C2.88733 21.5679 5.56381 21.5679 7.21505 19.9067ZM4.61758 8.88424C5.59864 8.80917 6.55936 8.4033 7.31071 7.66781C8.98331 6.02791 8.98331 3.36982 7.31071 1.72993C5.63812 0.0900242 2.92704 0.0900242 1.25446 1.72993C-0.418133 3.36982 -0.418133 6.02791 1.25446 7.66781C2.17569 8.57104 3.41279 8.97691 4.61758 8.88424ZM12.07 15.7712C12.0702 15.7714 12.0706 15.7712 12.0706 15.7709C12.2388 13.5761 14.0597 11.8475 16.2832 11.8475C18.6181 11.8475 20.5101 13.7525 20.5113 16.1047C20.5113 18.3423 18.7945 20.1759 16.6147 20.3462C16.6144 20.3463 16.6142 20.3467 16.6145 20.3469C16.6147 20.3471 16.6146 20.3475 16.6142 20.3476C14.4852 20.5083 12.4908 21.3454 10.9616 22.8851C9.43355 24.4237 8.60214 26.4331 8.44137 28.5767C8.44134 28.5771 8.44095 28.5772 8.44071 28.577C8.44048 28.5768 8.44009 28.5769 8.44006 28.5773C8.3655 29.5521 7.95807 30.5067 7.21659 31.2532C5.56554 32.9156 2.88936 32.9156 1.23829 31.2532C-0.412764 29.5907 -0.412764 26.8962 1.23829 25.2337C1.97857 24.4884 2.9266 24.0781 3.89591 24.0019C3.89625 24.0018 3.8964 24.0014 3.89617 24.0012C3.89593 24.001 3.89609 24.0005 3.89643 24.0005C6.02548 23.8398 8.01989 23.0027 9.5491 21.463C11.0771 19.9244 11.9085 17.915 12.0693 15.7714C12.0693 15.7711 12.0697 15.7709 12.07 15.7712Z" fill="#2196F3"/>
</svg>
